<mxfile host="app.diagrams.net" modified="2023-03-26T15:06:50.126Z" agent="Mozilla/5.0 (Windows NT 10.0; Win64; x64) AppleWebKit/537.36 (KHTML, like Gecko) Chrome/111.0.0.0 Safari/537.36" etag="U0RPFHYIEeIklVjaBTeW" version="21.1.1" type="github">
  <diagram name="Page-1" id="NdD3XxwZcL9HfhGW4-kb">
    <mxGraphModel dx="4440" dy="5350" grid="1" gridSize="10" guides="1" tooltips="1" connect="1" arrows="1" fold="1" page="1" pageScale="1" pageWidth="850" pageHeight="1100" math="0" shadow="0">
      <root>
        <mxCell id="0" />
        <mxCell id="1" parent="0" />
        <mxCell id="q436bPKmCXlvHji29vo7-1" value="" style="rounded=0;whiteSpace=wrap;html=1;fillColor=none;" vertex="1" parent="1">
          <mxGeometry x="230" y="-190" width="740" height="2010" as="geometry" />
        </mxCell>
        <mxCell id="q436bPKmCXlvHji29vo7-2" value="Admin&lt;br&gt;" style="shape=umlActor;verticalLabelPosition=bottom;verticalAlign=top;html=1;outlineConnect=0;" vertex="1" parent="1">
          <mxGeometry x="1000" y="1510" width="30" height="60" as="geometry" />
        </mxCell>
        <mxCell id="q436bPKmCXlvHji29vo7-3" value="Guest" style="shape=umlActor;verticalLabelPosition=bottom;verticalAlign=top;html=1;outlineConnect=0;" vertex="1" parent="1">
          <mxGeometry x="135" y="122.64" width="30" height="60" as="geometry" />
        </mxCell>
        <mxCell id="q436bPKmCXlvHji29vo7-4" value="Student" style="shape=umlActor;verticalLabelPosition=bottom;verticalAlign=top;html=1;outlineConnect=0;" vertex="1" parent="1">
          <mxGeometry x="145" y="530" width="30" height="60" as="geometry" />
        </mxCell>
        <mxCell id="q436bPKmCXlvHji29vo7-5" value="Instructor" style="shape=umlActor;verticalLabelPosition=bottom;verticalAlign=top;html=1;outlineConnect=0;" vertex="1" parent="1">
          <mxGeometry x="105" y="1440" width="30" height="60" as="geometry" />
        </mxCell>
        <mxCell id="q436bPKmCXlvHji29vo7-6" value="Search" style="ellipse;whiteSpace=wrap;html=1;" vertex="1" parent="1">
          <mxGeometry x="595" y="30" width="120" height="80" as="geometry" />
        </mxCell>
        <mxCell id="q436bPKmCXlvHji29vo7-7" value="View categories" style="ellipse;whiteSpace=wrap;html=1;" vertex="1" parent="1">
          <mxGeometry x="595" y="122.64" width="120" height="80" as="geometry" />
        </mxCell>
        <mxCell id="q436bPKmCXlvHji29vo7-8" value="View student review" style="ellipse;whiteSpace=wrap;html=1;" vertex="1" parent="1">
          <mxGeometry x="595" y="222.64" width="120" height="80" as="geometry" />
        </mxCell>
        <mxCell id="q436bPKmCXlvHji29vo7-9" value="View preview course" style="ellipse;whiteSpace=wrap;html=1;" vertex="1" parent="1">
          <mxGeometry x="595" y="322.64" width="120" height="80" as="geometry" />
        </mxCell>
        <mxCell id="q436bPKmCXlvHji29vo7-10" style="edgeStyle=orthogonalEdgeStyle;rounded=0;orthogonalLoop=1;jettySize=auto;html=1;exitX=0.5;exitY=1;exitDx=0;exitDy=0;endArrow=none;endFill=0;startArrow=block;startFill=0;dashed=1;" edge="1" parent="1" source="q436bPKmCXlvHji29vo7-12" target="q436bPKmCXlvHji29vo7-15">
          <mxGeometry relative="1" as="geometry">
            <mxPoint x="735" y="612.64" as="targetPoint" />
            <Array as="points">
              <mxPoint x="655" y="533" />
              <mxPoint x="585" y="533" />
              <mxPoint x="585" y="593" />
            </Array>
          </mxGeometry>
        </mxCell>
        <mxCell id="q436bPKmCXlvHji29vo7-11" value="&amp;lt;&amp;lt;Extend&amp;gt;&amp;gt;" style="edgeLabel;html=1;align=center;verticalAlign=middle;resizable=0;points=[];" connectable="0" vertex="1" parent="q436bPKmCXlvHji29vo7-10">
          <mxGeometry x="0.2088" y="5" relative="1" as="geometry">
            <mxPoint x="5" y="13" as="offset" />
          </mxGeometry>
        </mxCell>
        <mxCell id="q436bPKmCXlvHji29vo7-12" value="View course" style="ellipse;whiteSpace=wrap;html=1;" vertex="1" parent="1">
          <mxGeometry x="595" y="432.64" width="120" height="80" as="geometry" />
        </mxCell>
        <mxCell id="q436bPKmCXlvHji29vo7-13" style="edgeStyle=orthogonalEdgeStyle;rounded=0;orthogonalLoop=1;jettySize=auto;html=1;entryX=0.012;entryY=0.389;entryDx=0;entryDy=0;entryPerimeter=0;endArrow=block;endFill=0;dashed=1;" edge="1" parent="1" source="q436bPKmCXlvHji29vo7-14" target="q436bPKmCXlvHji29vo7-12">
          <mxGeometry relative="1" as="geometry">
            <Array as="points">
              <mxPoint x="510" y="464" />
              <mxPoint x="510" y="464" />
            </Array>
          </mxGeometry>
        </mxCell>
        <mxCell id="q436bPKmCXlvHji29vo7-14" value="Add to cart" style="ellipse;whiteSpace=wrap;html=1;" vertex="1" parent="1">
          <mxGeometry x="350" y="420" width="120" height="80" as="geometry" />
        </mxCell>
        <mxCell id="q436bPKmCXlvHji29vo7-15" value="Add to wishlist" style="ellipse;whiteSpace=wrap;html=1;" vertex="1" parent="1">
          <mxGeometry x="455" y="552.64" width="120" height="80" as="geometry" />
        </mxCell>
        <mxCell id="q436bPKmCXlvHji29vo7-16" value="Review course" style="ellipse;whiteSpace=wrap;html=1;" vertex="1" parent="1">
          <mxGeometry x="485" y="642.64" width="120" height="80" as="geometry" />
        </mxCell>
        <mxCell id="q436bPKmCXlvHji29vo7-17" value="Study course" style="ellipse;whiteSpace=wrap;html=1;" vertex="1" parent="1">
          <mxGeometry x="545" y="722.64" width="120" height="80" as="geometry" />
        </mxCell>
        <mxCell id="q436bPKmCXlvHji29vo7-18" style="edgeStyle=orthogonalEdgeStyle;rounded=0;orthogonalLoop=1;jettySize=auto;html=1;startArrow=block;startFill=0;endArrow=none;endFill=0;exitX=0.2;exitY=0.899;exitDx=0;exitDy=0;exitPerimeter=0;dashed=1;" edge="1" parent="1" source="q436bPKmCXlvHji29vo7-20">
          <mxGeometry relative="1" as="geometry">
            <mxPoint x="534.9835931288072" y="879.4242712474617" as="sourcePoint" />
            <mxPoint x="447.40999999999997" y="828.8523616632825" as="targetPoint" />
            <Array as="points">
              <mxPoint x="447" y="892" />
            </Array>
          </mxGeometry>
        </mxCell>
        <mxCell id="q436bPKmCXlvHji29vo7-19" value="&amp;lt;&amp;lt;include&amp;gt;&amp;gt;" style="edgeLabel;html=1;align=center;verticalAlign=middle;resizable=0;points=[];" connectable="0" vertex="1" parent="q436bPKmCXlvHji29vo7-18">
          <mxGeometry x="0.7221" y="1" relative="1" as="geometry">
            <mxPoint x="45" y="39" as="offset" />
          </mxGeometry>
        </mxCell>
        <mxCell id="q436bPKmCXlvHji29vo7-20" value="Make payment" style="ellipse;whiteSpace=wrap;html=1;" vertex="1" parent="1">
          <mxGeometry x="535" y="820" width="120" height="80" as="geometry" />
        </mxCell>
        <mxCell id="q436bPKmCXlvHji29vo7-21" value="Apply coupon" style="ellipse;whiteSpace=wrap;html=1;" vertex="1" parent="1">
          <mxGeometry x="355" y="770" width="120" height="80" as="geometry" />
        </mxCell>
        <mxCell id="q436bPKmCXlvHji29vo7-22" value="Refund" style="ellipse;whiteSpace=wrap;html=1;" vertex="1" parent="1">
          <mxGeometry x="365" y="920" width="120" height="80" as="geometry" />
        </mxCell>
        <mxCell id="q436bPKmCXlvHji29vo7-23" value="Return payment" style="ellipse;whiteSpace=wrap;html=1;" vertex="1" parent="1">
          <mxGeometry x="620" y="970" width="120" height="80" as="geometry" />
        </mxCell>
        <mxCell id="q436bPKmCXlvHji29vo7-24" value="Create couponAll" style="ellipse;whiteSpace=wrap;html=1;" vertex="1" parent="1">
          <mxGeometry x="755" y="1490" width="120" height="80" as="geometry" />
        </mxCell>
        <mxCell id="q436bPKmCXlvHji29vo7-25" value="Create couponCourse" style="ellipse;whiteSpace=wrap;html=1;" vertex="1" parent="1">
          <mxGeometry x="380" y="1400" width="120" height="80" as="geometry" />
        </mxCell>
        <mxCell id="q436bPKmCXlvHji29vo7-26" value="Create couponInstructor" style="ellipse;whiteSpace=wrap;html=1;" vertex="1" parent="1">
          <mxGeometry x="380" y="1510" width="120" height="80" as="geometry" />
        </mxCell>
        <mxCell id="q436bPKmCXlvHji29vo7-27" value="Add course" style="ellipse;whiteSpace=wrap;html=1;" vertex="1" parent="1">
          <mxGeometry x="370" y="1620" width="120" height="80" as="geometry" />
        </mxCell>
        <mxCell id="q436bPKmCXlvHji29vo7-28" value="Edit profile" style="ellipse;whiteSpace=wrap;html=1;" vertex="1" parent="1">
          <mxGeometry x="255" y="1280" width="120" height="80" as="geometry" />
        </mxCell>
        <mxCell id="q436bPKmCXlvHji29vo7-29" value="Edit course" style="ellipse;whiteSpace=wrap;html=1;" vertex="1" parent="1">
          <mxGeometry x="375" y="1730" width="120" height="80" as="geometry" />
        </mxCell>
        <mxCell id="q436bPKmCXlvHji29vo7-30" value="" style="endArrow=none;html=1;rounded=0;exitX=1;exitY=0.3333333333333333;exitDx=0;exitDy=0;exitPerimeter=0;" edge="1" parent="1" source="q436bPKmCXlvHji29vo7-3">
          <mxGeometry width="50" height="50" relative="1" as="geometry">
            <mxPoint x="365" y="152.64" as="sourcePoint" />
            <mxPoint x="595" y="70" as="targetPoint" />
          </mxGeometry>
        </mxCell>
        <mxCell id="q436bPKmCXlvHji29vo7-31" value="" style="endArrow=none;html=1;rounded=0;entryX=0;entryY=0.5;entryDx=0;entryDy=0;exitX=1;exitY=0.3333333333333333;exitDx=0;exitDy=0;exitPerimeter=0;" edge="1" parent="1" source="q436bPKmCXlvHji29vo7-3" target="q436bPKmCXlvHji29vo7-7">
          <mxGeometry width="50" height="50" relative="1" as="geometry">
            <mxPoint x="245" y="140" as="sourcePoint" />
            <mxPoint x="575" y="102.64" as="targetPoint" />
          </mxGeometry>
        </mxCell>
        <mxCell id="q436bPKmCXlvHji29vo7-32" value="" style="endArrow=none;html=1;rounded=0;exitX=1;exitY=0.3333333333333333;exitDx=0;exitDy=0;exitPerimeter=0;entryX=0;entryY=0.5;entryDx=0;entryDy=0;" edge="1" parent="1" source="q436bPKmCXlvHji29vo7-3" target="q436bPKmCXlvHji29vo7-8">
          <mxGeometry width="50" height="50" relative="1" as="geometry">
            <mxPoint x="525" y="152.64" as="sourcePoint" />
            <mxPoint x="575" y="102.64" as="targetPoint" />
          </mxGeometry>
        </mxCell>
        <mxCell id="q436bPKmCXlvHji29vo7-33" value="" style="endArrow=none;html=1;rounded=0;exitX=0;exitY=0.3333333333333333;exitDx=0;exitDy=0;exitPerimeter=0;entryX=1;entryY=0.5;entryDx=0;entryDy=0;" edge="1" parent="1" source="q436bPKmCXlvHji29vo7-2" target="q436bPKmCXlvHji29vo7-24">
          <mxGeometry width="50" height="50" relative="1" as="geometry">
            <mxPoint x="790" y="1172.6399999999999" as="sourcePoint" />
            <mxPoint x="840" y="1122.6399999999999" as="targetPoint" />
          </mxGeometry>
        </mxCell>
        <mxCell id="q436bPKmCXlvHji29vo7-34" value="" style="endArrow=none;html=1;rounded=0;entryX=0;entryY=0.5;entryDx=0;entryDy=0;exitX=1;exitY=0.3333333333333333;exitDx=0;exitDy=0;exitPerimeter=0;" edge="1" parent="1" source="q436bPKmCXlvHji29vo7-3" target="q436bPKmCXlvHji29vo7-9">
          <mxGeometry width="50" height="50" relative="1" as="geometry">
            <mxPoint x="165" y="150" as="sourcePoint" />
            <mxPoint x="725" y="272.64" as="targetPoint" />
          </mxGeometry>
        </mxCell>
        <mxCell id="q436bPKmCXlvHji29vo7-35" value="" style="endArrow=none;html=1;rounded=0;entryX=0.059;entryY=0.23;entryDx=0;entryDy=0;exitX=1;exitY=0.3333333333333333;exitDx=0;exitDy=0;exitPerimeter=0;entryPerimeter=0;" edge="1" parent="1" source="q436bPKmCXlvHji29vo7-3" target="q436bPKmCXlvHji29vo7-12">
          <mxGeometry width="50" height="50" relative="1" as="geometry">
            <mxPoint x="165" y="140" as="sourcePoint" />
            <mxPoint x="725" y="272.64" as="targetPoint" />
          </mxGeometry>
        </mxCell>
        <mxCell id="q436bPKmCXlvHji29vo7-36" value="" style="endArrow=none;html=1;rounded=0;entryX=0;entryY=0.5;entryDx=0;entryDy=0;exitX=1;exitY=0.3333333333333333;exitDx=0;exitDy=0;exitPerimeter=0;" edge="1" parent="1" source="q436bPKmCXlvHji29vo7-4" target="q436bPKmCXlvHji29vo7-14">
          <mxGeometry width="50" height="50" relative="1" as="geometry">
            <mxPoint x="345" y="592.64" as="sourcePoint" />
            <mxPoint x="725" y="532.64" as="targetPoint" />
          </mxGeometry>
        </mxCell>
        <mxCell id="q436bPKmCXlvHji29vo7-37" value="" style="endArrow=none;html=1;rounded=0;exitX=1;exitY=0.3333333333333333;exitDx=0;exitDy=0;exitPerimeter=0;" edge="1" parent="1" source="q436bPKmCXlvHji29vo7-4" target="q436bPKmCXlvHji29vo7-12">
          <mxGeometry width="50" height="50" relative="1" as="geometry">
            <mxPoint x="675" y="502.64" as="sourcePoint" />
            <mxPoint x="725" y="452.64" as="targetPoint" />
          </mxGeometry>
        </mxCell>
        <mxCell id="q436bPKmCXlvHji29vo7-38" value="" style="endArrow=none;html=1;rounded=0;entryX=0;entryY=0.5;entryDx=0;entryDy=0;" edge="1" parent="1" target="q436bPKmCXlvHji29vo7-15">
          <mxGeometry width="50" height="50" relative="1" as="geometry">
            <mxPoint x="175" y="550" as="sourcePoint" />
            <mxPoint x="725" y="452.64" as="targetPoint" />
          </mxGeometry>
        </mxCell>
        <mxCell id="q436bPKmCXlvHji29vo7-39" value="" style="endArrow=none;html=1;rounded=0;exitX=1;exitY=0.3333333333333333;exitDx=0;exitDy=0;exitPerimeter=0;entryX=0.003;entryY=0.585;entryDx=0;entryDy=0;entryPerimeter=0;" edge="1" parent="1" source="q436bPKmCXlvHji29vo7-4" target="q436bPKmCXlvHji29vo7-16">
          <mxGeometry width="50" height="50" relative="1" as="geometry">
            <mxPoint x="675" y="762.64" as="sourcePoint" />
            <mxPoint x="725" y="712.64" as="targetPoint" />
          </mxGeometry>
        </mxCell>
        <mxCell id="q436bPKmCXlvHji29vo7-40" value="" style="endArrow=none;html=1;rounded=0;entryX=0;entryY=0.5;entryDx=0;entryDy=0;" edge="1" parent="1" target="q436bPKmCXlvHji29vo7-17">
          <mxGeometry width="50" height="50" relative="1" as="geometry">
            <mxPoint x="175" y="550" as="sourcePoint" />
            <mxPoint x="725" y="712.64" as="targetPoint" />
          </mxGeometry>
        </mxCell>
        <mxCell id="q436bPKmCXlvHji29vo7-41" value="" style="endArrow=none;html=1;rounded=0;" edge="1" parent="1" target="q436bPKmCXlvHji29vo7-20">
          <mxGeometry width="50" height="50" relative="1" as="geometry">
            <mxPoint x="175" y="550" as="sourcePoint" />
            <mxPoint x="526.3200000000002" y="884.56" as="targetPoint" />
          </mxGeometry>
        </mxCell>
        <mxCell id="q436bPKmCXlvHji29vo7-42" style="edgeStyle=orthogonalEdgeStyle;rounded=0;orthogonalLoop=1;jettySize=auto;html=1;exitX=0.584;exitY=1;exitDx=0;exitDy=0;endArrow=none;endFill=0;exitPerimeter=0;startArrow=block;startFill=0;dashed=1;" edge="1" parent="1" source="q436bPKmCXlvHji29vo7-12" target="q436bPKmCXlvHji29vo7-16">
          <mxGeometry relative="1" as="geometry">
            <mxPoint x="695" y="662.64" as="targetPoint" />
            <mxPoint x="665" y="522.64" as="sourcePoint" />
            <Array as="points">
              <mxPoint x="665" y="543" />
              <mxPoint x="635" y="543" />
              <mxPoint x="635" y="683" />
            </Array>
          </mxGeometry>
        </mxCell>
        <mxCell id="q436bPKmCXlvHji29vo7-43" value="&amp;lt;&amp;lt;Extend&amp;gt;&amp;gt;" style="edgeLabel;html=1;align=center;verticalAlign=middle;resizable=0;points=[];" connectable="0" vertex="1" parent="q436bPKmCXlvHji29vo7-42">
          <mxGeometry x="0.2088" y="5" relative="1" as="geometry">
            <mxPoint x="-5" y="11" as="offset" />
          </mxGeometry>
        </mxCell>
        <mxCell id="q436bPKmCXlvHji29vo7-44" style="edgeStyle=orthogonalEdgeStyle;rounded=0;orthogonalLoop=1;jettySize=auto;html=1;endArrow=none;endFill=0;startArrow=block;startFill=0;dashed=1;" edge="1" parent="1" source="q436bPKmCXlvHji29vo7-12">
          <mxGeometry relative="1" as="geometry">
            <mxPoint x="645" y="792.64" as="targetPoint" />
            <mxPoint x="705" y="533.64" as="sourcePoint" />
            <Array as="points">
              <mxPoint x="695" y="793" />
            </Array>
          </mxGeometry>
        </mxCell>
        <mxCell id="q436bPKmCXlvHji29vo7-45" value="&amp;lt;&amp;lt;Extend&amp;gt;&amp;gt;" style="edgeLabel;html=1;align=center;verticalAlign=middle;resizable=0;points=[];" connectable="0" vertex="1" parent="q436bPKmCXlvHji29vo7-44">
          <mxGeometry x="0.2088" y="5" relative="1" as="geometry">
            <mxPoint x="-15" y="33" as="offset" />
          </mxGeometry>
        </mxCell>
        <mxCell id="q436bPKmCXlvHji29vo7-46" style="edgeStyle=orthogonalEdgeStyle;rounded=0;orthogonalLoop=1;jettySize=auto;html=1;endArrow=none;endFill=0;startArrow=block;startFill=0;dashed=1;" edge="1" parent="1" source="q436bPKmCXlvHji29vo7-12" target="q436bPKmCXlvHji29vo7-20">
          <mxGeometry relative="1" as="geometry">
            <mxPoint x="645" y="892.6399999999999" as="targetPoint" />
            <mxPoint x="685" y="520.64" as="sourcePoint" />
            <Array as="points">
              <mxPoint x="705" y="593" />
              <mxPoint x="715" y="593" />
              <mxPoint x="715" y="893" />
            </Array>
          </mxGeometry>
        </mxCell>
        <mxCell id="q436bPKmCXlvHji29vo7-47" value="&amp;lt;&amp;lt;Extend&amp;gt;&amp;gt;" style="edgeLabel;html=1;align=center;verticalAlign=middle;resizable=0;points=[];" connectable="0" vertex="1" parent="q436bPKmCXlvHji29vo7-46">
          <mxGeometry x="0.2088" y="5" relative="1" as="geometry">
            <mxPoint x="-15" y="78" as="offset" />
          </mxGeometry>
        </mxCell>
        <mxCell id="q436bPKmCXlvHji29vo7-48" value="" style="endArrow=none;html=1;rounded=0;" edge="1" parent="1" source="q436bPKmCXlvHji29vo7-21">
          <mxGeometry width="50" height="50" relative="1" as="geometry">
            <mxPoint x="285" y="950" as="sourcePoint" />
            <mxPoint x="175" y="550" as="targetPoint" />
          </mxGeometry>
        </mxCell>
        <mxCell id="q436bPKmCXlvHji29vo7-49" value="" style="endArrow=none;html=1;rounded=0;" edge="1" parent="1" source="q436bPKmCXlvHji29vo7-22">
          <mxGeometry width="50" height="50" relative="1" as="geometry">
            <mxPoint x="195" y="790" as="sourcePoint" />
            <mxPoint x="175" y="550" as="targetPoint" />
          </mxGeometry>
        </mxCell>
        <mxCell id="q436bPKmCXlvHji29vo7-50" value="" style="endArrow=none;html=1;rounded=0;exitX=1;exitY=0.3333333333333333;exitDx=0;exitDy=0;exitPerimeter=0;" edge="1" parent="1" source="q436bPKmCXlvHji29vo7-5" target="q436bPKmCXlvHji29vo7-28">
          <mxGeometry width="50" height="50" relative="1" as="geometry">
            <mxPoint x="375" y="1100" as="sourcePoint" />
            <mxPoint x="425" y="1050" as="targetPoint" />
          </mxGeometry>
        </mxCell>
        <mxCell id="q436bPKmCXlvHji29vo7-51" value="" style="endArrow=none;html=1;rounded=0;entryX=1;entryY=0.3333333333333333;entryDx=0;entryDy=0;entryPerimeter=0;" edge="1" parent="1" source="q436bPKmCXlvHji29vo7-28" target="q436bPKmCXlvHji29vo7-4">
          <mxGeometry width="50" height="50" relative="1" as="geometry">
            <mxPoint x="375" y="860" as="sourcePoint" />
            <mxPoint x="325" y="590" as="targetPoint" />
          </mxGeometry>
        </mxCell>
        <mxCell id="q436bPKmCXlvHji29vo7-52" style="edgeStyle=orthogonalEdgeStyle;rounded=0;orthogonalLoop=1;jettySize=auto;html=1;entryX=-0.013;entryY=0.597;entryDx=0;entryDy=0;startArrow=block;startFill=0;endArrow=none;endFill=0;dashed=1;exitX=1;exitY=0.5;exitDx=0;exitDy=0;entryPerimeter=0;" edge="1" parent="1" source="q436bPKmCXlvHji29vo7-22" target="q436bPKmCXlvHji29vo7-23">
          <mxGeometry relative="1" as="geometry">
            <mxPoint x="425" y="1000" as="sourcePoint" />
            <mxPoint x="265" y="1050" as="targetPoint" />
            <Array as="points">
              <mxPoint x="510" y="960" />
              <mxPoint x="510" y="1018" />
            </Array>
          </mxGeometry>
        </mxCell>
        <mxCell id="q436bPKmCXlvHji29vo7-53" value="&amp;lt;&amp;lt;include&amp;gt;&amp;gt;" style="edgeLabel;html=1;align=center;verticalAlign=middle;resizable=0;points=[];" connectable="0" vertex="1" parent="q436bPKmCXlvHji29vo7-52">
          <mxGeometry x="0.3164" relative="1" as="geometry">
            <mxPoint x="30" as="offset" />
          </mxGeometry>
        </mxCell>
        <mxCell id="q436bPKmCXlvHji29vo7-54" value="" style="endArrow=none;html=1;rounded=0;entryX=1;entryY=0.3333333333333333;entryDx=0;entryDy=0;entryPerimeter=0;exitX=0.033;exitY=0.637;exitDx=0;exitDy=0;exitPerimeter=0;" edge="1" parent="1" target="q436bPKmCXlvHji29vo7-5">
          <mxGeometry width="50" height="50" relative="1" as="geometry">
            <mxPoint x="373.96000000000004" y="1770.96" as="sourcePoint" />
            <mxPoint x="-100" y="2180" as="targetPoint" />
          </mxGeometry>
        </mxCell>
        <mxCell id="q436bPKmCXlvHji29vo7-55" value="" style="endArrow=none;html=1;rounded=0;exitX=0;exitY=0.5;exitDx=0;exitDy=0;" edge="1" parent="1" source="q436bPKmCXlvHji29vo7-27">
          <mxGeometry width="50" height="50" relative="1" as="geometry">
            <mxPoint x="-150" y="2020" as="sourcePoint" />
            <mxPoint x="135" y="1460" as="targetPoint" />
          </mxGeometry>
        </mxCell>
        <mxCell id="q436bPKmCXlvHji29vo7-56" value="" style="endArrow=none;html=1;rounded=0;exitX=0;exitY=0.5;exitDx=0;exitDy=0;entryX=1;entryY=0.3333333333333333;entryDx=0;entryDy=0;entryPerimeter=0;" edge="1" parent="1" source="q436bPKmCXlvHji29vo7-26" target="q436bPKmCXlvHji29vo7-5">
          <mxGeometry width="50" height="50" relative="1" as="geometry">
            <mxPoint x="-150" y="2020" as="sourcePoint" />
            <mxPoint x="150" y="1820" as="targetPoint" />
          </mxGeometry>
        </mxCell>
        <mxCell id="q436bPKmCXlvHji29vo7-57" value="" style="endArrow=none;html=1;rounded=0;exitX=0;exitY=0.5;exitDx=0;exitDy=0;entryX=1;entryY=0.3333333333333333;entryDx=0;entryDy=0;entryPerimeter=0;" edge="1" parent="1" source="q436bPKmCXlvHji29vo7-25" target="q436bPKmCXlvHji29vo7-5">
          <mxGeometry width="50" height="50" relative="1" as="geometry">
            <mxPoint x="-150" y="2020" as="sourcePoint" />
            <mxPoint x="80" y="1940" as="targetPoint" />
          </mxGeometry>
        </mxCell>
        <mxCell id="q436bPKmCXlvHji29vo7-58" value="" style="endArrow=blockThin;html=1;rounded=0;endFill=0;" edge="1" parent="1">
          <mxGeometry width="50" height="50" relative="1" as="geometry">
            <mxPoint x="175" y="551.27998046875" as="sourcePoint" />
            <mxPoint x="155" y="210" as="targetPoint" />
          </mxGeometry>
        </mxCell>
        <mxCell id="q436bPKmCXlvHji29vo7-59" value="Login" style="ellipse;whiteSpace=wrap;html=1;" vertex="1" parent="1">
          <mxGeometry x="595" y="-160" width="120" height="80" as="geometry" />
        </mxCell>
        <mxCell id="q436bPKmCXlvHji29vo7-60" style="edgeStyle=orthogonalEdgeStyle;rounded=0;orthogonalLoop=1;jettySize=auto;html=1;entryX=0;entryY=0.5;entryDx=0;entryDy=0;dashed=1;endArrow=none;endFill=0;startArrow=block;startFill=0;" edge="1" parent="1" source="q436bPKmCXlvHji29vo7-62" target="q436bPKmCXlvHji29vo7-83">
          <mxGeometry relative="1" as="geometry" />
        </mxCell>
        <mxCell id="q436bPKmCXlvHji29vo7-61" value="&amp;lt;&amp;lt;Extend&amp;gt;&amp;gt;" style="edgeLabel;html=1;align=center;verticalAlign=middle;resizable=0;points=[];" connectable="0" vertex="1" parent="q436bPKmCXlvHji29vo7-60">
          <mxGeometry x="0.1683" y="2" relative="1" as="geometry">
            <mxPoint as="offset" />
          </mxGeometry>
        </mxCell>
        <mxCell id="q436bPKmCXlvHji29vo7-62" value="Register" style="ellipse;whiteSpace=wrap;html=1;" vertex="1" parent="1">
          <mxGeometry x="595" y="-70" width="120" height="80" as="geometry" />
        </mxCell>
        <mxCell id="q436bPKmCXlvHji29vo7-63" style="edgeStyle=orthogonalEdgeStyle;rounded=0;orthogonalLoop=1;jettySize=auto;html=1;exitX=0;exitY=0.3333333333333333;exitDx=0;exitDy=0;exitPerimeter=0;endArrow=none;endFill=0;" edge="1" parent="1" source="q436bPKmCXlvHji29vo7-64" target="q436bPKmCXlvHji29vo7-65">
          <mxGeometry relative="1" as="geometry">
            <Array as="points">
              <mxPoint x="790" y="1160" />
            </Array>
          </mxGeometry>
        </mxCell>
        <mxCell id="q436bPKmCXlvHji29vo7-64" value="System" style="shape=umlActor;verticalLabelPosition=bottom;verticalAlign=top;html=1;outlineConnect=0;" vertex="1" parent="1">
          <mxGeometry x="1000" y="1140" width="30" height="60" as="geometry" />
        </mxCell>
        <mxCell id="q436bPKmCXlvHji29vo7-65" value="Notification" style="ellipse;whiteSpace=wrap;html=1;" vertex="1" parent="1">
          <mxGeometry x="740" y="1120" width="120" height="80" as="geometry" />
        </mxCell>
        <mxCell id="q436bPKmCXlvHji29vo7-66" value="Add Payment Methods" style="ellipse;whiteSpace=wrap;html=1;" vertex="1" parent="1">
          <mxGeometry x="365" y="1020" width="120" height="80" as="geometry" />
        </mxCell>
        <mxCell id="q436bPKmCXlvHji29vo7-67" value="View Purchase History" style="ellipse;whiteSpace=wrap;html=1;" vertex="1" parent="1">
          <mxGeometry x="365" y="1200" width="120" height="80" as="geometry" />
        </mxCell>
        <mxCell id="q436bPKmCXlvHji29vo7-68" value="View Refunds &lt;br&gt;History" style="ellipse;whiteSpace=wrap;html=1;" vertex="1" parent="1">
          <mxGeometry x="365" y="1110" width="120" height="80" as="geometry" />
        </mxCell>
        <mxCell id="q436bPKmCXlvHji29vo7-69" value="" style="endArrow=none;html=1;rounded=0;entryX=0.023;entryY=0.633;entryDx=0;entryDy=0;entryPerimeter=0;exitX=1;exitY=0.3333333333333333;exitDx=0;exitDy=0;exitPerimeter=0;" edge="1" parent="1" source="q436bPKmCXlvHji29vo7-3" target="q436bPKmCXlvHji29vo7-62">
          <mxGeometry width="50" height="50" relative="1" as="geometry">
            <mxPoint x="170" y="140" as="sourcePoint" />
            <mxPoint x="595" y="60" as="targetPoint" />
            <Array as="points" />
          </mxGeometry>
        </mxCell>
        <mxCell id="q436bPKmCXlvHji29vo7-70" value="" style="endArrow=none;html=1;rounded=0;entryX=0.023;entryY=0.633;entryDx=0;entryDy=0;entryPerimeter=0;" edge="1" parent="1">
          <mxGeometry width="50" height="50" relative="1" as="geometry">
            <mxPoint x="170" y="140" as="sourcePoint" />
            <mxPoint x="595" y="-120" as="targetPoint" />
            <Array as="points" />
          </mxGeometry>
        </mxCell>
        <mxCell id="q436bPKmCXlvHji29vo7-71" value="&amp;lt;&amp;lt;Extend&amp;gt;&amp;gt;" style="edgeLabel;html=1;align=center;verticalAlign=middle;resizable=0;points=[];" connectable="0" vertex="1" parent="1">
          <mxGeometry x="529.9970270270271" y="463.996738818155" as="geometry" />
        </mxCell>
        <mxCell id="q436bPKmCXlvHji29vo7-72" style="edgeStyle=orthogonalEdgeStyle;rounded=0;orthogonalLoop=1;jettySize=auto;html=1;exitX=0;exitY=0.5;exitDx=0;exitDy=0;entryX=0.985;entryY=0.338;entryDx=0;entryDy=0;entryPerimeter=0;dashed=1;endArrow=block;endFill=0;" edge="1" parent="1" source="q436bPKmCXlvHji29vo7-74" target="q436bPKmCXlvHji29vo7-6">
          <mxGeometry relative="1" as="geometry" />
        </mxCell>
        <mxCell id="q436bPKmCXlvHji29vo7-73" value="&amp;lt;&amp;lt;Extend&amp;gt;&amp;gt;" style="edgeLabel;html=1;align=center;verticalAlign=middle;resizable=0;points=[];" connectable="0" vertex="1" parent="q436bPKmCXlvHji29vo7-72">
          <mxGeometry x="-0.1538" relative="1" as="geometry">
            <mxPoint as="offset" />
          </mxGeometry>
        </mxCell>
        <mxCell id="q436bPKmCXlvHji29vo7-74" value="Search by Categories" style="ellipse;whiteSpace=wrap;html=1;" vertex="1" parent="1">
          <mxGeometry x="820" y="-40" width="120" height="80" as="geometry" />
        </mxCell>
        <mxCell id="q436bPKmCXlvHji29vo7-75" value="Search by Course name" style="ellipse;whiteSpace=wrap;html=1;" vertex="1" parent="1">
          <mxGeometry x="820" y="59.999999999999986" width="120" height="80" as="geometry" />
        </mxCell>
        <mxCell id="q436bPKmCXlvHji29vo7-76" value="Search by Instructor" style="ellipse;whiteSpace=wrap;html=1;" vertex="1" parent="1">
          <mxGeometry x="820" y="160" width="120" height="80" as="geometry" />
        </mxCell>
        <mxCell id="q436bPKmCXlvHji29vo7-77" value="Verify Instructor" style="ellipse;whiteSpace=wrap;html=1;" vertex="1" parent="1">
          <mxGeometry x="755" y="1380" width="120" height="80" as="geometry" />
        </mxCell>
        <mxCell id="q436bPKmCXlvHji29vo7-78" value="" style="endArrow=none;html=1;rounded=0;entryX=1;entryY=0.3333333333333333;entryDx=0;entryDy=0;entryPerimeter=0;exitX=0;exitY=0.5;exitDx=0;exitDy=0;" edge="1" parent="1" source="q436bPKmCXlvHji29vo7-66" target="q436bPKmCXlvHji29vo7-4">
          <mxGeometry width="50" height="50" relative="1" as="geometry">
            <mxPoint x="365" y="1063" as="sourcePoint" />
            <mxPoint x="180" y="550" as="targetPoint" />
          </mxGeometry>
        </mxCell>
        <mxCell id="q436bPKmCXlvHji29vo7-79" value="" style="endArrow=none;html=1;rounded=0;entryX=1;entryY=0.3333333333333333;entryDx=0;entryDy=0;entryPerimeter=0;exitX=0.002;exitY=0.412;exitDx=0;exitDy=0;exitPerimeter=0;" edge="1" parent="1" source="q436bPKmCXlvHji29vo7-67" target="q436bPKmCXlvHji29vo7-4">
          <mxGeometry width="50" height="50" relative="1" as="geometry">
            <mxPoint x="365" y="1240" as="sourcePoint" />
            <mxPoint x="175" y="730" as="targetPoint" />
          </mxGeometry>
        </mxCell>
        <mxCell id="q436bPKmCXlvHji29vo7-80" value="" style="endArrow=none;html=1;rounded=0;entryX=1;entryY=0.3333333333333333;entryDx=0;entryDy=0;entryPerimeter=0;exitX=0;exitY=0.5;exitDx=0;exitDy=0;" edge="1" parent="1" source="q436bPKmCXlvHji29vo7-68" target="q436bPKmCXlvHji29vo7-4">
          <mxGeometry width="50" height="50" relative="1" as="geometry">
            <mxPoint x="380" y="1235.64" as="sourcePoint" />
            <mxPoint x="190" y="552.64" as="targetPoint" />
          </mxGeometry>
        </mxCell>
        <mxCell id="q436bPKmCXlvHji29vo7-81" value="" style="endArrow=none;html=1;rounded=0;exitX=0;exitY=0.3333333333333333;exitDx=0;exitDy=0;entryX=0.982;entryY=0.357;entryDx=0;entryDy=0;entryPerimeter=0;exitPerimeter=0;" edge="1" parent="1" source="q436bPKmCXlvHji29vo7-2" target="q436bPKmCXlvHji29vo7-77">
          <mxGeometry width="50" height="50" relative="1" as="geometry">
            <mxPoint x="1120" y="1510" as="sourcePoint" />
            <mxPoint x="875" y="1420" as="targetPoint" />
            <Array as="points">
              <mxPoint x="960" y="1490" />
            </Array>
          </mxGeometry>
        </mxCell>
        <mxCell id="q436bPKmCXlvHji29vo7-82" value="" style="endArrow=none;html=1;rounded=0;exitX=0;exitY=0.3333333333333333;exitDx=0;exitDy=0;exitPerimeter=0;" edge="1" parent="1" source="q436bPKmCXlvHji29vo7-64">
          <mxGeometry width="50" height="50" relative="1" as="geometry">
            <mxPoint x="867" y="1131" as="sourcePoint" />
            <mxPoint x="740" y="1010" as="targetPoint" />
          </mxGeometry>
        </mxCell>
        <mxCell id="q436bPKmCXlvHji29vo7-83" value="Register by Google" style="ellipse;whiteSpace=wrap;html=1;" vertex="1" parent="1">
          <mxGeometry x="780" y="-150" width="120" height="80" as="geometry" />
        </mxCell>
        <mxCell id="q436bPKmCXlvHji29vo7-84" style="edgeStyle=orthogonalEdgeStyle;rounded=0;orthogonalLoop=1;jettySize=auto;html=1;exitX=0;exitY=0.5;exitDx=0;exitDy=0;entryX=1;entryY=0.5;entryDx=0;entryDy=0;dashed=1;endArrow=block;endFill=0;" edge="1" parent="1" target="q436bPKmCXlvHji29vo7-6">
          <mxGeometry relative="1" as="geometry">
            <mxPoint x="820" y="103" as="sourcePoint" />
            <mxPoint x="713" y="160" as="targetPoint" />
          </mxGeometry>
        </mxCell>
        <mxCell id="q436bPKmCXlvHji29vo7-85" value="&amp;lt;&amp;lt;Extend&amp;gt;&amp;gt;" style="edgeLabel;html=1;align=center;verticalAlign=middle;resizable=0;points=[];" connectable="0" vertex="1" parent="q436bPKmCXlvHji29vo7-84">
          <mxGeometry x="-0.1538" relative="1" as="geometry">
            <mxPoint as="offset" />
          </mxGeometry>
        </mxCell>
        <mxCell id="q436bPKmCXlvHji29vo7-86" style="edgeStyle=orthogonalEdgeStyle;rounded=0;orthogonalLoop=1;jettySize=auto;html=1;exitX=0;exitY=0.5;exitDx=0;exitDy=0;entryX=1.012;entryY=0.638;entryDx=0;entryDy=0;dashed=1;endArrow=block;endFill=0;entryPerimeter=0;" edge="1" parent="1" source="q436bPKmCXlvHji29vo7-76" target="q436bPKmCXlvHji29vo7-6">
          <mxGeometry relative="1" as="geometry">
            <mxPoint x="830" y="113" as="sourcePoint" />
            <mxPoint x="725" y="80" as="targetPoint" />
            <Array as="points">
              <mxPoint x="730" y="200" />
              <mxPoint x="730" y="81" />
            </Array>
          </mxGeometry>
        </mxCell>
        <mxCell id="q436bPKmCXlvHji29vo7-87" value="&amp;lt;&amp;lt;Extend&amp;gt;&amp;gt;" style="edgeLabel;html=1;align=center;verticalAlign=middle;resizable=0;points=[];" connectable="0" vertex="1" parent="q436bPKmCXlvHji29vo7-86">
          <mxGeometry x="-0.1538" relative="1" as="geometry">
            <mxPoint as="offset" />
          </mxGeometry>
        </mxCell>
      </root>
    </mxGraphModel>
  </diagram>
</mxfile>
